<svg xmlns="http://www.w3.org/2000/svg" ><path d="M10.075 12.829v2.64h6.455c-.319 3.702-3.47 5.281-6.444 5.281-3.805 0-7.126-2.927-7.126-7.029 0-3.996 3.166-7.073 7.135-7.073 3.062 0 4.866 1.908 4.866 1.908l1.89-1.915S14.426 4 9.999 4C4.36 4 0 8.65 0 13.674c0 4.922 4.102 9.722 10.142 9.722 5.311 0 9.2-3.557 9.2-8.817 0-1.11-.165-1.75-.165-1.75h-9.102zm16.557-1.912c-3.734 0-6.41 2.854-6.41 6.183 0 3.378 2.595 6.285 6.454 6.285 3.494 0 6.356-2.61 6.356-6.213 0-4.129-3.33-6.255-6.4-6.255zm.038 2.449c1.836 0 3.577 1.451 3.577 3.79 0 2.289-1.733 3.782-3.586 3.782-2.035 0-3.64-1.594-3.64-3.8 0-2.16 1.585-3.772 3.649-3.772zm13.906-2.45c-3.735 0-6.411 2.855-6.411 6.184 0 3.378 2.596 6.285 6.455 6.285 3.493 0 6.355-2.61 6.355-6.213 0-4.129-3.33-6.255-6.4-6.255zm.037 2.45c1.836 0 3.577 1.451 3.577 3.79 0 2.289-1.733 3.782-3.586 3.782-2.035 0-3.64-1.594-3.64-3.8 0-2.16 1.585-3.772 3.649-3.772zm13.639-2.443c-3.428 0-6.123 2.935-6.123 6.23 0 3.752 3.124 6.24 6.064 6.24 1.817 0 2.784-.705 3.497-1.515v1.23c0 2.15-1.336 3.438-3.352 3.438-1.948 0-2.925-1.416-3.265-2.219l-2.45 1.002c.869 1.797 2.62 3.671 5.735 3.671 3.408 0 6.006-2.099 6.006-6.5V11.298H57.69v1.056c-.822-.866-1.946-1.43-3.438-1.43zm.248 2.444c1.68 0 3.406 1.403 3.406 3.799 0 2.435-1.722 3.777-3.443 3.777-1.828 0-3.528-1.45-3.528-3.754 0-2.394 1.766-3.822 3.565-3.822zm17.753-2.458c-3.234 0-5.949 2.514-5.949 6.225 0 3.927 3.026 6.256 6.26 6.256 2.697 0 4.354-1.443 5.342-2.736L75.7 19.22c-.572.868-1.528 1.716-3.124 1.716-1.793 0-2.617-.96-3.128-1.89L78 15.579l-.444-1.016c-.826-1.99-2.753-3.653-5.303-3.653zm.111 2.397c1.165 0 2.004.606 2.36 1.332l-5.71 2.333c-.247-1.806 1.504-3.665 3.35-3.665zM62.227 23.02h2.81V4.645h-2.81V23.02z"></path></svg>