<svg xmlns="http://www.w3.org/2000/svg" ><path d="M80.792 19.627c-2.17 0-3.935-1.781-3.935-3.97 0-2.19 1.765-3.97 3.935-3.97s3.935 1.78 3.935 3.97c0 2.21-1.786 3.97-3.935 3.97m0-10.301c-3.467 0-6.275 2.833-6.275 6.33 0 3.499 2.808 6.331 6.275 6.331 3.467 0 6.275-2.832 6.275-6.33 0-3.477-2.808-6.331-6.275-6.331m-7.679 10.623h.51v2.382h-.51c-2.701 0-4.914-2.232-4.914-4.958V6.493h2.361v3.176h3.042v2.382H70.56v5.344a2.567 2.567 0 002.553 2.554m28.759-.322c-2.17 0-3.935-1.781-3.935-3.97 0-2.19 1.766-3.97 3.935-3.97 2.17 0 3.936 1.78 3.936 3.97-.022 2.21-1.787 3.97-3.936 3.97m0-10.301c-3.467 0-6.275 2.833-6.275 6.33 0 3.499 2.808 6.331 6.275 6.331 3.468 0 6.276-2.832 6.276-6.33 0-3.477-2.808-6.331-6.276-6.331m18.06 10.301c-2.17 0-3.935-1.781-3.935-3.97 0-2.19 1.765-3.97 3.935-3.97s3.935 1.78 3.935 3.97c0 2.21-1.786 3.97-3.935 3.97m0-10.301c-3.467 0-6.275 2.833-6.275 6.33 0 3.499 2.808 6.331 6.275 6.331a6.186 6.186 0 004.02-1.48v1.244h2.255v-6.094c0-3.477-2.808-6.331-6.275-6.331m-26.377 0h1.128v2.382h-1.128c-1.404 0-2.552 1.159-2.552 2.575v7.555H88.64v-7.555c0-2.725 2.213-4.957 4.914-4.957m16.168-3.155h2.36v15.623h-2.36zM52.5 14.605v7.533h-2.36v-7.533c0-1.416-1.149-2.575-2.553-2.575s-2.553 1.159-2.553 2.575v7.533h-2.36v-7.533c0-1.416-1.15-2.575-2.553-2.575-1.404 0-2.553 1.159-2.553 2.575v7.533h-2.361v-7.533c0-2.725 2.212-4.957 4.892-4.957 1.51 0 2.83.665 3.744 1.738a4.868 4.868 0 013.744-1.738c2.702 0 4.914 2.232 4.914 4.957m7.87 5.344c-2.17 0-3.935-1.781-3.935-3.97 0-2.19 1.766-3.97 3.935-3.97 2.17 0 3.936 1.78 3.936 3.97 0 2.189-1.787 3.97-3.936 3.97m0-10.301c-3.488 0-6.296 2.832-6.296 6.33 0 3.499 2.808 6.331 6.275 6.331 3.467 0 6.275-2.832 6.275-6.33.021-3.477-2.786-6.331-6.254-6.331M15.87 1.6c7.978 0 14.274 6.481 14.274 14.4 0 7.962-6.381 14.4-14.273 14.4-7.892 0-14.273-6.438-14.273-14.4 0-7.962 6.381-14.4 14.273-14.4zm4.255 3.541l-4.233 14.164-.021.021-.043-.021L11.595 5.14 6.128 23.275H7.15l.008-.036c.08-.353.744-3.237 1.8-5.007.617-1.03 1.553-1.867 2.808-1.846.894.022 1.66.515 2.617 1.867.213.3.468.794.723 1.267.202.397.388.799.524 1.102l.092.207.129.3s.893-2.06 1.467-2.876c.958-1.352 1.723-1.845 2.617-1.867 1.255-.021 2.212.816 2.808 1.846 1.057 1.77 1.72 4.654 1.8 5.007l.008.036h1.02L20.126 5.141z"></path></svg>