<svg xmlns="http://www.w3.org/2000/svg"><path d="M10.534 11.266c2.727 0 4.923 1.97 4.923 4.747s-2.196 4.746-4.923 4.746-4.873-1.893-5-4.57v-.176c0-2.778 2.248-4.747 5-4.747zM5.56 22.123c2.12 1.969 4.292 1.969 5.58 1.969 4.317 0 7.877-3.61 7.877-8.08 0-4.468-3.585-8.079-7.902-8.079-1.263 0-3.434 0-5.58 1.944v-.782a.814.814 0 00-.732-.758h-2.07c-.405.05-.708.354-.733.758v20.148c.025.404.328.707.732.757h2.096c.404-.05.707-.353.732-.757v-7.12zm25.172-1.363c-2.676 0-4.847-1.995-4.847-4.747s2.17-4.747 4.847-4.747c2.676 0 4.848 1.995 4.848 4.747s-2.172 4.746-4.848 4.746v.001zm0-12.827c-4.696 0-8.407 3.61-8.407 8.08 0 4.469 3.686 8.079 8.407 8.079 4.722 0 8.383-3.61 8.383-8.08 0-4.468-3.687-8.079-8.383-8.079zm19.769 7.903L56.46 9.17a.835.835 0 00-.808-.833h-2.853c-.328 0-.53.253-.758.505l-5.327 5.984V2.757c-.024-.404-.328-.707-.732-.757h-2.07a.812.812 0 00-.733.757v20.148c.026.404.329.707.733.758h2.095a.811.811 0 00.732-.758v-5.958l5.908 6.236c.228.253.43.505.758.505h2.929a.835.835 0 00.808-.833l-6.64-7.02-.001.001zm24.087-4.57c2.727 0 4.923 1.97 4.923 4.747s-2.196 4.746-4.923 4.746-4.898-1.893-5-4.57v-.176c.026-2.778 2.248-4.747 5-4.747zm-4.974 10.857c2.146 1.969 4.292 1.969 5.58 1.969 4.317 0 7.877-3.61 7.877-8.08 0-4.468-3.585-8.079-7.877-8.079-1.263 0-3.434 0-5.58 1.944v-.782c-.025-.404-.328-.707-.732-.758h-2.096a.811.811 0 00-.732.758v20.148c.025.404.328.707.732.757h2.096c.404-.05.707-.353.732-.757v-7.12zm25.172-1.363c-2.676 0-4.847-1.995-4.847-4.747s2.171-4.747 4.847-4.747c2.677 0 4.848 1.995 4.848 4.747s-2.171 4.746-4.848 4.746v.001zm0-12.827c-4.696 0-8.382 3.61-8.382 8.08 0 4.469 3.686 8.079 8.382 8.079s8.383-3.61 8.383-8.08c0-4.468-3.687-8.079-8.383-8.079zm19.769 7.903l5.959-6.666a.832.832 0 00-.783-.833h-2.853c-.328 0-.53.253-.757.505l-5.327 5.984V2.757a.812.812 0 00-.733-.757h-2.095c-.404.05-.707.353-.732.757v20.148c.025.404.328.707.732.758h2.095a.813.813 0 00.733-.758v-5.958l5.908 6.236c.227.253.429.505.757.505h2.929a.814.814 0 00.782-.833l-6.615-7.02v.001z"></path></svg>