<svg xmlns="http://www.w3.org/2000/svg" ><path d="M27.025 15.41c0 .973-.362 1.39-1.16 1.39H4.829v-5.222h20.819c1.015 0 1.377.487 1.377 1.044v2.787zM27.39 9H2v14h2.829v-3.274h23.067c1.451 0 2.104-1.393 2.104-2.367v-6.27C30 9.068 28.259 9 27.39 9zm29.909 10.52c0 .478-.475.869-1.06.869H36.76c-.586 0-1.061-.391-1.061-.87v-7.135c0-.478.475-.869 1.061-.869h19.48c.585 0 1.06.39 1.06.87v7.135zM58.671 9H34.327C33.594 9 33 9.616 33 10.371V21.63c0 .758.594 1.371 1.327 1.371H58.67c.734 0 1.329-.613 1.329-1.371V10.37C60 9.616 59.405 9 58.67 9zm31.309 6.545c0 .838-.36 1.255-1.298 1.255H67.88v-5.155h20.803c.864 0 1.297.42 1.297 1.116v2.784zm1.293 4.181c.361-.072 1.44-.556 1.44-2.228v-5.853c0-1.671-.72-2.645-2.158-2.645H65v14h2.807v-3.346h20.3l1.584 3.206H93l-1.727-3.134zM122.853 9v2.774h-22.047c-.934 0-1.077.623-1.077 1.038v.902s-.073.971.934.971H120.7c1.866 0 2.3 1.453 2.3 2.217v3.74c0 1.805-1.366 2.358-2.374 2.358H97v-2.702h21.978c1.002 0 1.221-.414 1.221-.972v-1.177c0-.848-1.439-.691-2.014-.691H99.082c-1.65 0-2.082-1.18-2.082-2.15v-4.364c0-1.248 1.22-1.873 2.443-1.873 1.22 0 23.41-.071 23.41-.071M154 9.072v2.577h-21.964c-1.01 0-1.223.695-1.223 1.323v6.13c0 .975.286 1.253 1.004 1.253h22.11V23h-23.696c-2.01 0-2.231-1.323-2.231-2.507v-9.61C128 9 129.731 9 130.306 9S154 9.072 154 9.072M181.235 9v5.687h-20.467V9H158v14h2.768v-5.642h20.467V23H184V9h-2.765M217 11.707V9h-28v14h28v-2.702h-25.164v-3.05H217v-2.702h-25.164v-2.839H217"></path></svg>