<svg xmlns="http://www.w3.org/2000/svg" ><path d="M157.004 4.897h-.457v.756h.457c.245 0 .404-.175.404-.379 0-.204-.16-.377-.403-.377zm.389 2.375l-.534-1.128h-.312v1.128h-.654V4.359h1.196c.593 0 .974.431.974.915 0 .402-.259.659-.54.772l.616 1.226h-.746zm-.495-3.579c-1.188 0-2.101.908-2.101 2.126s.913 2.126 2.1 2.126c1.188 0 2.101-.908 2.101-2.126s-.912-2.126-2.1-2.126zm0 4.865a2.747 2.747 0 01-2.756-2.739 2.747 2.747 0 012.756-2.738 2.747 2.747 0 012.755 2.738 2.747 2.747 0 01-2.755 2.739zm-5.29 4.563c-1.227 0-2.142.433-2.748 1.298-.604.865-.906 2.007-.906 3.428v6.363h-4.122V9.516h4.122v1.94c.53-.601 1.195-1.11 1.993-1.53.797-.419 1.607-.637 2.432-.655l.027 3.85h-.797m-14.538.247c-.568-.474-1.26-.71-2.075-.71a3.728 3.728 0 00-2.24.737c-.678.491-1.071 1.156-1.18 1.993h6.485c-.092-.873-.422-1.547-.99-2.02zm3.959 8.712c-1.669 1.566-3.624 2.348-5.869 2.348-2.245 0-4.098-.687-5.564-2.062-1.466-1.374-2.199-3.217-2.199-5.53 0-2.312.747-4.152 2.24-5.517 1.492-1.366 3.257-2.048 5.29-2.048s3.76.61 5.18 1.83c1.42 1.22 2.13 2.895 2.13 5.025v2.185h-10.772c.127.801.549 1.457 1.263 1.966.715.51 1.522.765 2.42.765 1.446 0 2.637-.482 3.571-1.447l2.31 2.485zM116 30c-1.447 0-2.812-.583-4.094-1.748l1.868-3.032c.697.674 1.411 1.01 2.144 1.01.385 0 .714-.186.989-.56.274-.373.412-.768.412-1.187 0-.419-1.906-5.408-5.715-14.967h4.397l3.6 9.15 3.6-9.15h4.397l-6.87 17.316c-.405 1-1.031 1.779-1.883 2.335A5.096 5.096 0 01116 30m-6.458-19.39c-1.137-.893-2.602-1.339-4.397-1.339-2.491 0-4.709.7-6.651 2.103l1.841 2.649c.55-.419 1.224-.77 2.02-1.052.798-.282 1.553-.423 2.268-.423 1.667 0 2.501.783 2.501 2.349v.082h-3.079c-1.904 0-3.407.373-4.506 1.12-1.1.747-1.649 1.87-1.649 3.372 0 1.503.532 2.704 1.594 3.606 1.063.9 2.377 1.351 3.944 1.351 1.474 0 2.174-.51 2.23-1.522l.049-2.16a3.07 3.07 0 01-1.386.323c-.734 0-1.296-.14-1.69-.423-.395-.282-.591-.687-.591-1.215 0-1.02.825-1.53 2.473-1.53h2.588v6.309h4.146v-9.368c0-1.93-.57-3.34-1.705-4.233M92.037 24.21h4.123V3.945h-4.123V24.21zM80.785 8.93c-.413.336-.618.782-.618 1.338 0 .555.251.996.755 1.324.505.328 1.667.715 3.491 1.161 1.822.446 3.237 1.116 4.245 2.007 1.007.892 1.512 2.195 1.512 3.906 0 1.711-.646 3.1-1.937 4.165-1.292 1.065-2.99 1.597-5.099 1.597-3.04 0-5.78-1.12-8.216-3.359l2.556-3.113c2.07 1.802 3.985 2.704 5.743 2.704.788 0 1.406-.169 1.855-.506.448-.336.673-.792.673-1.365 0-.574-.238-1.029-.714-1.366-.477-.337-1.42-.678-2.83-1.024-2.236-.528-3.871-1.216-4.906-2.062-1.035-.847-1.552-2.176-1.552-3.988 0-1.81.654-3.209 1.964-4.191 1.31-.984 2.945-1.475 4.906-1.475 1.283 0 2.565.218 3.847.655 1.282.437 2.4 1.056 3.352 1.857l-2.171 3.115c-1.667-1.256-3.389-1.885-5.166-1.885-.714 0-1.278.168-1.69.506m-16.007.585l2.527 3.933 2.612-3.933h4.836L69.67 16.7l5.276 7.511h-4.919l-2.886-4.043-2.802 4.043h-4.755l5.167-7.483-4.893-7.21h4.92m-7.694 1.092c-1.137-.893-2.602-1.339-4.397-1.339-2.491 0-4.709.7-6.65 2.103l1.842 2.649c.549-.419 1.222-.77 2.019-1.052.797-.282 1.553-.423 2.267-.423 1.667 0 2.5.783 2.5 2.349v.082h-3.076c-1.905 0-3.407.373-4.507 1.12-1.1.747-1.649 1.87-1.649 3.372 0 1.503.532 2.704 1.594 3.606 1.063.9 2.378 1.351 3.945 1.351 1.474 0 2.173-.51 2.228-1.522l.049-2.16a3.06 3.06 0 01-1.385.323c-.733 0-1.297-.14-1.69-.423-.395-.282-.59-.687-.59-1.215 0-1.02.824-1.53 2.472-1.53h2.588v6.309h4.145v-9.368c0-1.93-.569-3.34-1.704-4.233M41.2 8.806V24.21h-4.286V8.806H31.47V5.12h15.17v3.687h-5.442M14.836 2C21.918 2 27.66 7.706 27.66 14.744c0 7.039-5.742 12.745-12.824 12.745-7.083 0-12.825-5.706-12.825-12.745C2.012 7.706 7.754 2 14.836 2zm-1.31 5.105c-1.911.792-5.23 2.325-5.23 3.42v9.552l5.27 2.595-.29-6.502-3.062-.865V13.08l4.629.288 4.628-.288v2.225l-3.062.865-.29 6.502 5.27-2.595v-9.551c0-1.096-3.318-2.63-5.23-3.421a3.436 3.436 0 00-2.633 0z"></path></svg>