<svg xmlns="http://www.w3.org/2000/svg" ><path d="M49.085 23.79H46.33l-4.736-6.542-4.77 6.542h-2.755l6.114-8.421-5.61-7.75h2.754l4.267 5.871 4.266-5.87h2.755l-5.644 7.75 6.114 8.42zm14.311-4.597c0 1.41-.47 2.55-1.41 3.355-.942.805-2.285 1.242-4.032 1.242h-7.559v-7.213h-3.628l1.512-2.08h2.116V7.619h7.256c1.647 0 2.89.403 3.763 1.174.873.772 1.31 1.812 1.31 3.053 0 1.543-.705 2.751-2.116 3.523.907.335 1.579.872 2.049 1.51.504.637.739 1.442.739 2.314zM52.848 14.53h4.635c.941 0 1.647-.201 2.117-.637.47-.403.705-1.04.705-1.88 0-.704-.235-1.274-.739-1.677-.47-.402-1.175-.603-2.083-.603h-4.635v4.797zm8.062 4.596c0-.838-.269-1.51-.773-1.912-.504-.436-1.276-.637-2.284-.637h-5.005v5.065h4.971c.975 0 1.747-.234 2.285-.637.537-.436.806-1.074.806-1.879zm19.149-3.422c0 1.242-.168 2.416-.538 3.422a8.068 8.068 0 01-1.612 2.684c-.74.772-1.58 1.376-2.52 1.745-.94.402-2.016.57-3.225.57-1.176 0-2.284-.201-3.225-.57a7.564 7.564 0 01-2.52-1.745c-.739-.771-1.276-1.677-1.646-2.684-.37-1.006-.537-2.18-.537-3.422 0-1.241.168-2.415.537-3.422.37-1.006.907-1.946 1.646-2.717a6.945 6.945 0 012.52-1.745c.94-.369 2.05-.57 3.225-.57 1.176 0 2.25.201 3.225.57a6.84 6.84 0 012.52 1.745 7.687 7.687 0 011.612 2.717c.336 1.007.538 2.147.538 3.422zm-13.27 0c0 1.913.504 3.422 1.478 4.53.974 1.106 2.25 1.677 3.897 1.677 1.613 0 2.923-.57 3.897-1.678.974-1.107 1.444-2.616 1.444-4.529 0-1.912-.47-3.455-1.444-4.562-.974-1.107-2.284-1.678-3.897-1.678s-2.923.57-3.897 1.678c-.974 1.14-1.478 2.65-1.478 4.562zm21.063-.335l5.644-7.75h-2.755l-4.266 5.871-4.266-5.871h-2.755l5.644 7.75-6.114 8.42h2.754l4.737-6.541 4.77 6.542H94l-6.148-8.421zm-72.334-2.542c4.08 3.093 10.99 10.692 8.9 12.844a13.475 13.475 0 01-8.9 3.329c-3.405 0-6.54-1.244-8.9-3.329-2.123-2.152 4.821-9.75 8.867-12.81 0-.034.033-.034.033-.034zm0-10.827c-2.73 0-4.989.74-7.045 1.984-.034 0-.034.033-.034.067s.034.034.067.034c2.63-.572 6.608 1.68 6.979 1.916h.067c.37-.235 4.349-2.488 6.978-1.916.034 0 .068 0 .068-.034s0-.067-.034-.067C20.508 2.74 18.25 2 15.518 2zM6.045 5.867c-.033 0-.033.033-.067.033a13.503 13.503 0 00-1.214 17.754c0 .033.034.033.068.033.033 0 .033-.033 0-.067-1.045-3.194 4.247-10.894 6.978-14.122l.034-.033c0-.034 0-.034-.034-.034-4.146-4.102-5.529-3.665-5.765-3.564zm13.182 3.53l-.034.034s0 .034.034.034c2.73 3.227 7.99 10.927 6.978 14.122v.067c.034 0 .067 0 .067-.034a13.49 13.49 0 002.765-8.17c0-3.733-1.517-7.129-4.012-9.583-.034-.034-.034-.034-.067-.034-.203-.067-1.585-.504-5.731 3.564z"></path></svg>